<?xml version="1.0" encoding="utf-8"?>
<!-- Generator: Adobe Illustrator 14.0.0, SVG Export Plug-In . SVG Version: 6.00 Build 43363)  -->
<!DOCTYPE svg PUBLIC "-//W3C//DTD SVG 1.0//EN" "http://www.w3.org/TR/2001/REC-SVG-20010904/DTD/svg10.dtd" [
	<!ENTITY ns_flows "http://ns.adobe.com/Flows/1.0/">
	<!ENTITY ns_extend "http://ns.adobe.com/Extensibility/1.0/">
	<!ENTITY ns_ai "http://ns.adobe.com/AdobeIllustrator/10.0/">
	<!ENTITY ns_graphs "http://ns.adobe.com/Graphs/1.0/">
]>
<svg version="1.0" xmlns:x="&ns_extend;" xmlns:i="&ns_ai;" xmlns:graph="&ns_graphs;"
	 xmlns="http://www.w3.org/2000/svg" xmlns:xlink="http://www.w3.org/1999/xlink" xmlns:a="http://ns.adobe.com/AdobeSVGViewerExtensions/3.0/"
	 x="0px" y="0px" width="1683.78px" height="2381.1px" viewBox="0 0 1683.78 2381.1" enable-background="new 0 0 1683.78 2381.1"
	 xml:space="preserve">
<g id="Ebene_1" display="none">
	<g display="inline">
		<polygon fill="none" stroke="#D5E4B1" stroke-width="5.75" stroke-linecap="square" stroke-miterlimit="10" points="
			888.378,1190.229 888.378,1190.229 888.128,1185.479 887.378,1180.979 886.128,1176.479 884.628,1172.229 882.628,1168.229 
			880.378,1164.479 877.628,1160.979 874.628,1157.479 871.128,1154.479 867.628,1151.979 863.628,1149.479 859.628,1147.479 
			855.128,1145.979 850.628,1144.729 845.878,1144.229 841.129,1143.979 841.129,1143.979 836.379,1144.229 831.879,1144.729 
			827.379,1145.979 823.129,1147.479 819.129,1149.479 815.379,1151.979 811.879,1154.479 808.379,1157.479 805.379,1160.979 
			802.879,1164.479 800.379,1168.229 798.379,1172.229 796.879,1176.479 795.629,1180.979 795.129,1185.479 794.879,1190.229 
			794.879,1190.229 795.129,1194.979 795.629,1199.729 796.879,1204.229 798.379,1208.729 800.379,1212.729 802.879,1216.729 
			805.379,1220.229 808.379,1223.729 811.879,1226.729 815.379,1229.479 819.129,1231.729 823.129,1233.729 827.379,1235.229 
			831.879,1236.479 836.379,1237.229 841.129,1237.479 841.129,1237.479 845.878,1237.229 850.628,1236.479 855.128,1235.229 
			859.628,1233.729 863.628,1231.729 867.628,1229.479 871.128,1226.729 874.628,1223.729 877.628,1220.229 880.378,1216.729 
			882.628,1212.729 884.628,1208.729 886.128,1204.229 887.378,1199.729 888.128,1194.979 888.378,1190.229 888.378,1190.229 
			888.378,1190.229 		"/>
		<polygon fill-rule="evenodd" clip-rule="evenodd" fill="#D5E4B1" points="820.129,1209.979 823.629,1207.479 810.129,1198.979 
			811.629,1215.979 815.129,1213.479 820.129,1209.979 820.129,1209.979 		"/>
		<polygon fill-rule="evenodd" clip-rule="evenodd" fill="#D5E4B1" points="870.878,1216.479 872.378,1199.729 858.878,1208.229 
			870.878,1216.479 		"/>
		<polygon fill-rule="evenodd" clip-rule="evenodd" fill="#D5E4B1" points="851.128,1159.979 851.128,1159.979 850.878,1161.729 
			850.378,1163.479 849.378,1164.979 848.378,1166.479 846.878,1167.479 845.378,1168.479 843.628,1168.979 841.879,1169.229 
			841.879,1169.229 839.879,1168.979 838.379,1168.479 836.629,1167.479 835.379,1166.479 834.379,1164.979 833.379,1163.479 
			832.879,1161.729 832.629,1159.979 832.629,1159.979 832.879,1158.229 833.379,1156.479 834.379,1154.729 835.379,1153.479 
			836.629,1152.479 838.379,1151.479 839.879,1150.979 841.879,1150.729 841.879,1150.729 843.628,1150.979 845.378,1151.479 
			846.878,1152.479 848.378,1153.479 849.378,1154.729 850.378,1156.479 850.878,1158.229 851.128,1159.979 851.128,1159.979 
			851.128,1159.979 		"/>
		<polygon fill-rule="evenodd" clip-rule="evenodd" fill="#D5E4B1" points="816.879,1209.729 816.879,1209.729 818.379,1212.229 
			820.379,1214.729 823.379,1217.479 824.879,1218.979 826.879,1220.229 828.879,1221.479 831.129,1222.729 833.629,1223.729 
			836.129,1224.479 838.879,1224.979 841.978,1224.743 816.879,1209.729 		"/>
		<polyline fill="none" stroke="#D5E4B1" stroke-width="7.75" stroke-linecap="square" stroke-miterlimit="10" points="
			816.879,1209.729 816.879,1209.729 818.379,1212.229 820.379,1214.729 823.379,1217.479 824.879,1218.979 826.879,1220.229 
			828.879,1221.479 831.129,1222.729 833.629,1223.729 836.129,1224.479 838.879,1224.979 842.161,1224.946 		"/>
		<polyline fill="none" stroke="#D5E4B1" stroke-width="7.75" stroke-linecap="square" stroke-miterlimit="10" points="
			866.628,1209.979 866.628,1209.979 864.878,1212.229 862.878,1214.729 860.128,1217.479 858.378,1218.979 856.628,1220.229 
			854.378,1221.479 852.128,1222.729 849.878,1223.729 847.128,1224.479 844.378,1224.979 841.408,1224.824 		"/>
		<polygon fill-rule="evenodd" clip-rule="evenodd" fill="#D5E4B1" points="845.628,1221.979 837.629,1221.979 837.629,1166.479 
			845.628,1166.479 845.628,1221.979 845.628,1221.979 		"/>
		<polygon fill-rule="evenodd" clip-rule="evenodd" fill="#D5E4B1" points="862.128,1182.729 820.879,1182.729 820.879,1176.729 
			862.128,1176.729 862.128,1182.729 862.128,1182.729 		"/>
	</g>
</g>
<g id="Ebene_2">
	<g>
		<path fill="#004A99" d="M833.128,1170.509c166.202,0,301.3-152,344.631-206.842l44.261,29.114l23.004-203.338l-178.603,100.988
			l35.867,23.593c-34.995,42.866-122.33,138.058-224.276,161.398V577.943h216.427v-71.874H878.012v-97.085
			c47.272-18.085,80.847-63.873,80.847-117.511c0-69.468-56.307-125.78-125.761-125.78c-69.474,0-125.787,56.313-125.787,125.78
			c0,53.638,33.577,99.425,80.859,117.511v97.085H571.738v71.874H788.17v497.492c-99.669-22.8-185.399-114.344-221.863-158.459
			l40.203-26.444L427.895,789.542l23.015,203.339l39.878-26.231C536.512,1023.809,669.783,1170.509,833.128,1170.509z"/>
		<path fill="#004A99" d="M1287.613,1134.262c58.19-58.188,103.88-125.957,135.801-201.424
			c33.056-78.151,49.816-161.149,49.816-246.686c0-85.539-16.761-168.538-49.816-246.691c-31.921-75.47-77.61-143.24-135.8-201.43
			c-58.19-58.189-125.961-103.879-201.431-135.8c-78.153-33.056-161.152-49.816-246.691-49.816
			c-85.537,0-168.535,16.761-246.688,49.816c-75.468,31.921-143.239,77.61-201.428,135.8
			c-58.189,58.189-103.879,125.96-135.799,201.43c-33.056,78.153-49.816,161.152-49.816,246.691
			c0,85.537,16.761,168.534,49.816,246.686c31.92,75.467,77.61,143.236,135.799,201.424
			c58.189,58.188,125.959,103.875,201.428,135.795c78.152,33.055,161.15,49.814,246.688,49.814
			c85.539,0,168.538-16.76,246.691-49.814C1161.653,1238.138,1229.423,1192.45,1287.613,1134.262z M839.492,1247.999
			c-309.81,0-561.858-252.043-561.858-561.847c0-309.813,252.049-561.864,561.858-561.864
			c309.813,0,561.865,252.051,561.865,561.864C1401.357,995.955,1149.305,1247.999,839.492,1247.999z"/>
	</g>
</g>
</svg>
