<?xml version="1.0" encoding="utf-8"?>
<!-- Generator: Adobe Illustrator 16.0.0, SVG Export Plug-In . SVG Version: 6.00 Build 0)  -->
<svg version="1.2" baseProfile="tiny" id="Ebene_1" xmlns="http://www.w3.org/2000/svg" xmlns:xlink="http://www.w3.org/1999/xlink"
	 x="0px" y="0px" width="6.128px" height="6.065px" viewBox="-0.128 -0.065 6.128 6.065" xml:space="preserve">
<g id="ANCP14_quarantine">
	<polygon points="2.1,4.676 2.1,2.864 0.284,2.864 0.284,2.674 2.291,2.674 2.291,4.676 	"/>
	<polygon points="2.863,4.676 2.67,4.676 2.67,2.674 4.677,2.674 4.677,2.864 2.863,2.864 	"/>
	<polygon points="2.863,0.292 2.863,2.101 4.677,2.101 4.677,2.292 2.67,2.292 2.67,0.292 	"/>
	<polygon points="2.1,0.292 2.291,0.292 2.291,2.292 0.284,2.292 0.284,2.101 2.1,2.101 	"/>
	<polygon points="2.319,4.955 2.086,4.93 1.859,4.881 1.636,4.813 1.42,4.723 1.214,4.613 1.019,4.484 0.838,4.338 0.67,4.176 
		0.519,3.998 0.385,3.807 0.27,3.604 0.172,3.391 0.098,3.17 0.043,2.943 0.009,2.712 0.001,2.479 0.001,2.483 0.284,2.483 
		0.286,2.48 0.297,2.703 0.331,2.921 0.387,3.137 0.463,3.346 0.562,3.545 0.679,3.734 0.815,3.908 0.968,4.07 1.137,4.215 
		1.32,4.342 1.514,4.449 1.719,4.537 1.931,4.605 2.148,4.648 2.371,4.672 2.591,4.672 2.813,4.648 3.03,4.605 3.244,4.537 
		3.448,4.449 3.643,4.342 3.825,4.215 3.994,4.07 4.146,3.908 4.283,3.734 4.4,3.545 4.498,3.346 4.575,3.137 4.63,2.921 
		4.664,2.703 4.675,2.48 4.677,2.483 4.961,2.483 4.961,2.48 4.952,2.715 4.918,2.948 4.861,3.177 4.786,3.4 4.688,3.613 
		4.57,3.818 4.434,4.01 4.279,4.188 4.109,4.352 3.924,4.498 3.727,4.625 3.518,4.734 3.3,4.822 3.073,4.889 2.842,4.934 
		2.608,4.957 2.607,4.957 2.589,4.957 2.572,4.959 2.553,4.959 2.537,4.961 2.518,4.961 2.501,4.961 2.481,4.961 2.463,4.961 
		2.445,4.961 2.427,4.961 2.411,4.959 2.392,4.959 2.375,4.957 2.356,4.957 2.336,4.957 	"/>
	<polygon points="0.284,2.483 0.001,2.483 0.001,2.48 0.009,2.248 0.043,2.016 0.098,1.79 0.172,1.569 0.27,1.356 0.385,1.154 
		0.519,0.962 0.67,0.785 0.838,0.622 1.019,0.475 1.214,0.347 1.42,0.238 1.636,0.147 1.859,0.079 2.086,0.031 2.319,0.004 
		2.319,0.004 2.336,0.003 2.356,0.003 2.375,0.002 2.392,0.001 2.411,0.001 2.427,0.001 2.445,0 2.463,0 2.481,0 2.501,0 2.518,0 
		2.537,0.001 2.553,0.001 2.572,0.001 2.589,0.002 2.607,0.003 2.607,0.003 2.842,0.026 3.073,0.071 3.299,0.138 3.518,0.226 
		3.727,0.335 3.924,0.462 4.109,0.609 4.279,0.772 4.434,0.95 4.57,1.142 4.688,1.346 4.786,1.56 4.861,1.783 4.918,2.012 
		4.952,2.245 4.961,2.48 4.961,2.483 4.677,2.483 4.675,2.48 4.666,2.265 4.633,2.052 4.581,1.843 4.508,1.64 4.417,1.447 
		4.305,1.261 4.177,1.088 4.033,0.928 3.874,0.785 3.701,0.656 3.516,0.545 3.322,0.453 3.119,0.38 2.91,0.328 2.696,0.296 
		2.481,0.287 2.266,0.296 2.052,0.328 1.844,0.38 1.641,0.453 1.446,0.545 1.261,0.656 1.088,0.785 0.929,0.928 0.784,1.088 
		0.657,1.261 0.545,1.447 0.454,1.64 0.381,1.843 0.329,2.052 0.297,2.265 0.286,2.48 	"/>
	<line fill="none" stroke="#000000" stroke-width="1.0002" stroke-miterlimit="1" x1="2.481" y1="0.287" x2="2.481" y2="4.781"/>
	<line fill="none" stroke="#000000" stroke-width="1.0002" stroke-miterlimit="1" x1="0.177" y1="2.479" x2="4.675" y2="2.48"/>
</g>
</svg>
