<?xml version="1.0" encoding="utf-8"?>
<!-- Generator: Adobe Illustrator 16.0.2, SVG Export Plug-In . SVG Version: 6.00 Build 0)  -->
<!DOCTYPE svg PUBLIC "-//W3C//DTD SVG 1.1//EN" "http://www.w3.org/Graphics/SVG/1.1/DTD/svg11.dtd">
<svg version="1.1" id="Layer_1" xmlns="http://www.w3.org/2000/svg" xmlns:xlink="http://www.w3.org/1999/xlink" x="0px" y="0px"
	 width="6px" height="6px" viewBox="0 0 6 6" enable-background="new 0 0 6 6" xml:space="preserve">
<symbol  id="Mine_x5F_abandoned_x5F_1A010P002" viewBox="-2.67 -2.573 5.339 5.147">
	<path d="M1.667-0.734L0.665,0.269l1.805,1.803L1.967,2.573L0.166,0.768L-1.64,2.573l-0.502-0.502l1.804-1.804L-1.49-0.885
		l-0.022-0.021c-0.472,0.355-0.867,0.814-1.153,1.332c-0.1-1.677,1.29-3.085,2.973-2.995c-0.502,0.281-0.963,0.716-1.297,1.184
		l1.152,1.153l1.003-1.003L0.464-1.937l0.301-0.301l0.126,0.003l0.13,0.011l0.16,0.025l0.164,0.044
		c0.262,0.071,0.583,0.269,0.77,0.465c0.171,0.166,0.351,0.436,0.428,0.66l0.044,0.122l0.026,0.099l0.025,0.103l0.02,0.137
		l0.011,0.236L2.368-0.032L1.667-0.734"/>
</symbol>
<use xlink:href="#Mine_x5F_abandoned_x5F_1A010P002"  width="5.339" height="5.147" x="-2.67" y="-2.573" transform="matrix(-1 0 0 1 2.6694 2.5732)" overflow="visible"/>
</svg>
