<?xml version="1.0" encoding="utf-8"?>
<!-- Generator: Adobe Illustrator 16.0.2, SVG Export Plug-In . SVG Version: 6.00 Build 0)  -->
<svg version="1.2" baseProfile="tiny" id="Layer_1" xmlns="http://www.w3.org/2000/svg" xmlns:xlink="http://www.w3.org/1999/xlink"
	 x="0px" y="0px" width="4.138px" height="18.594px" viewBox="0 0 4.138 18.594" xml:space="preserve">
<g id="smokestack_1">
	<g>
		<polygon points="2.083,9.316 2.083,9.326 2.083,9.336 2.082,9.346 2.082,9.355 2.081,9.367 2.08,9.375 2.079,9.385 2.078,9.395 
			2.076,9.404 2.074,9.416 2.072,9.424 2.07,9.434 2.069,9.443 2.067,9.453 2.064,9.463 2.061,9.473 2.058,9.482 2.055,9.492 
			2.052,9.502 2.048,9.51 2.045,9.52 2.042,9.529 2.038,9.539 2.034,9.547 2.03,9.555 2.026,9.564 2.022,9.574 2.017,9.584 
			2.012,9.592 2.007,9.6 2.002,9.607 1.997,9.615 1.992,9.625 1.986,9.633 1.981,9.641 1.974,9.648 1.968,9.656 1.963,9.664 
			1.957,9.674 1.95,9.682 1.944,9.689 1.938,9.695 1.931,9.703 1.923,9.709 1.917,9.717 1.91,9.725 1.902,9.73 1.895,9.738 
			1.888,9.744 1.881,9.75 1.873,9.756 1.865,9.764 1.858,9.77 1.85,9.775 1.841,9.779 1.833,9.787 1.825,9.791 1.817,9.797 
			1.808,9.803 1.799,9.809 1.791,9.813 1.782,9.816 1.774,9.82 1.764,9.826 1.756,9.83 1.746,9.834 1.738,9.838 1.729,9.842 
			1.719,9.846 1.71,9.85 1.701,9.854 1.691,9.855 1.682,9.857 1.673,9.861 1.662,9.863 1.653,9.865 1.643,9.869 1.634,9.871 
			1.624,9.873 1.614,9.875 1.605,9.877 1.595,9.877 1.585,9.879 1.575,9.881 1.565,9.881 1.555,9.881 1.546,9.881 1.535,9.883 
			1.526,9.883 1.516,9.883 1.506,9.883 1.496,9.883 1.486,9.881 1.477,9.881 1.467,9.881 1.457,9.881 1.447,9.879 1.437,9.877 
			1.427,9.877 1.417,9.875 1.408,9.873 1.398,9.871 1.388,9.869 1.379,9.865 1.369,9.863 1.36,9.861 1.35,9.857 1.34,9.855 
			1.331,9.854 1.322,9.85 1.313,9.846 1.303,9.842 1.294,9.838 1.285,9.834 1.277,9.83 1.267,9.826 1.258,9.82 1.25,9.816 
			1.241,9.813 1.233,9.809 1.224,9.803 1.215,9.797 1.207,9.791 1.199,9.787 1.191,9.779 1.182,9.775 1.174,9.77 1.167,9.764 
			1.159,9.756 1.152,9.75 1.144,9.744 1.136,9.738 1.129,9.73 1.122,9.725 1.115,9.717 1.108,9.709 1.101,9.703 1.094,9.695 
			1.088,9.689 1.081,9.682 1.075,9.674 1.069,9.664 1.063,9.656 1.057,9.648 1.051,9.641 1.046,9.633 1.04,9.625 1.035,9.615 
			1.03,9.607 1.025,9.6 1.02,9.592 1.015,9.584 1.01,9.574 1.006,9.564 1.002,9.555 0.998,9.547 0.994,9.539 0.99,9.529 0.987,9.52 
			0.983,9.51 0.98,9.502 0.977,9.492 0.974,9.482 0.971,9.473 0.968,9.463 0.965,9.453 0.964,9.443 0.961,9.434 0.959,9.424 
			0.958,9.416 0.956,9.404 0.954,9.395 0.953,9.385 0.952,9.375 0.951,9.367 0.95,9.355 0.95,9.346 0.949,9.336 0.949,9.326 
			0.949,9.316 0.949,9.307 0.949,9.297 0.95,9.287 0.95,9.277 0.951,9.268 0.952,9.256 0.953,9.248 0.954,9.236 0.956,9.229 
			0.958,9.219 0.959,9.207 0.961,9.199 0.964,9.189 0.965,9.178 0.968,9.17 0.971,9.16 0.974,9.15 0.977,9.143 0.98,9.133 
			0.983,9.121 0.987,9.113 0.99,9.105 0.994,9.096 0.998,9.086 1.002,9.076 1.006,9.068 1.01,9.059 1.015,9.051 1.02,9.041 
			1.025,9.033 1.03,9.023 1.035,9.016 1.04,9.008 1.046,8.998 1.051,8.99 1.057,8.982 1.063,8.975 1.069,8.967 1.075,8.959 
			1.081,8.951 1.088,8.945 1.094,8.938 1.101,8.93 1.108,8.922 1.115,8.916 1.122,8.908 1.129,8.902 1.136,8.895 1.144,8.889 
			1.152,8.883 1.159,8.877 1.167,8.869 1.174,8.863 1.182,8.857 1.191,8.852 1.199,8.848 1.207,8.84 1.215,8.836 1.224,8.832 
			1.233,8.826 1.241,8.82 1.25,8.816 1.258,8.811 1.267,8.807 1.277,8.803 1.285,8.799 1.294,8.795 1.303,8.791 1.313,8.787 
			1.322,8.783 1.331,8.781 1.34,8.777 1.35,8.773 1.36,8.771 1.369,8.77 1.379,8.766 1.388,8.764 1.398,8.762 1.408,8.76 
			1.417,8.758 1.427,8.758 1.437,8.754 1.447,8.754 1.457,8.754 1.467,8.752 1.477,8.75 1.486,8.75 1.496,8.75 1.506,8.75 
			1.516,8.75 1.526,8.75 1.535,8.75 1.546,8.75 1.555,8.75 1.565,8.752 1.575,8.754 1.585,8.754 1.595,8.754 1.605,8.758 
			1.614,8.758 1.624,8.76 1.634,8.762 1.643,8.764 1.653,8.766 1.662,8.77 1.673,8.771 1.682,8.773 1.691,8.777 1.701,8.781 
			1.71,8.783 1.719,8.787 1.729,8.791 1.738,8.795 1.746,8.799 1.756,8.803 1.764,8.807 1.774,8.811 1.782,8.816 1.791,8.82 
			1.799,8.826 1.808,8.832 1.817,8.836 1.825,8.84 1.833,8.848 1.841,8.852 1.85,8.857 1.858,8.863 1.865,8.869 1.873,8.877 
			1.881,8.883 1.888,8.889 1.895,8.895 1.902,8.902 1.91,8.908 1.917,8.916 1.923,8.922 1.931,8.93 1.938,8.938 1.944,8.945 
			1.95,8.951 1.957,8.959 1.963,8.967 1.968,8.975 1.974,8.982 1.981,8.99 1.986,8.998 1.992,9.008 1.997,9.016 2.002,9.023 
			2.007,9.033 2.012,9.041 2.017,9.051 2.022,9.059 2.026,9.068 2.03,9.076 2.034,9.086 2.038,9.096 2.042,9.105 2.045,9.113 
			2.048,9.121 2.052,9.133 2.055,9.143 2.058,9.15 2.061,9.16 2.064,9.17 2.067,9.178 2.069,9.189 2.07,9.199 2.072,9.207 
			2.074,9.219 2.076,9.229 2.078,9.236 2.079,9.248 2.08,9.256 2.081,9.268 2.082,9.277 2.082,9.287 2.083,9.297 2.083,9.307 		"/>
	</g>
	<g>
		<polygon points="2.383,2.82 0.761,2.82 0.524,7.754 0,7.754 0,8.504 3.078,8.504 3.078,7.754 2.623,7.754 		"/>
		<polygon points="4.094,1.735 4.011,1.686 3.879,1.69 3.734,1.837 3.675,1.968 3.635,2.18 3.581,2.354 3.438,2.535 3.343,2.59 
			3.238,2.602 3.127,2.565 3.001,2.477 2.863,2.337 2.791,2.217 2.785,2.135 2.819,1.997 2.802,1.886 2.742,1.764 2.667,1.719 
			2.523,1.735 2.439,1.819 2.372,1.891 2.338,1.962 2.24,1.997 2.142,1.968 2.008,1.933 1.852,1.946 1.776,2 1.715,2.097 
			1.693,2.229 1.693,2.326 1.75,2.409 1.875,2.471 2.019,2.497 2.206,2.51 2.336,2.51 2.432,2.555 2.527,2.637 2.63,2.746 
			2.719,2.851 2.819,2.941 2.929,3.017 3.064,3.076 3.193,3.121 3.359,3.112 3.521,3.07 3.701,2.941 3.835,2.814 3.939,2.681 
			4.005,2.546 4.072,2.297 4.138,1.861 		"/>
		<polygon points="0.828,2.546 0.843,2.135 0.926,1.735 0.989,1.589 1.052,1.483 1.115,1.403 1.214,1.38 1.489,1.513 1.556,1.525 
			1.688,1.501 1.758,1.444 1.809,1.323 1.781,1.15 1.665,0.96 1.622,0.837 1.676,0.717 1.865,0.59 2.101,0.531 2.422,0.544 
			2.658,0.61 2.885,0.687 3.057,0.805 3.281,0.991 3.48,1.22 3.57,1.245 3.679,1.208 3.773,1.11 3.8,0.96 3.734,0.792 3.602,0.59 
			3.363,0.382 3.045,0.18 2.728,0.064 2.454,0 1.832,0.035 1.599,0.102 1.407,0.254 1.314,0.361 1.214,0.573 1.153,0.8 1.07,0.882 
			0.893,0.928 0.732,1.033 0.529,1.252 0.402,1.558 0.351,1.786 0.351,2 0.402,2.306 0.457,2.546 0.545,2.687 0.761,2.82 
			0.833,2.687 		"/>
	</g>
</g>
</svg>
