<?xml version="1.0" encoding="utf-8"?>
<!-- Generator: Adobe Illustrator 16.0.0, SVG Export Plug-In . SVG Version: 6.00 Build 0)  -->
<svg version="1.2" baseProfile="tiny" id="Ebene_1" xmlns="http://www.w3.org/2000/svg" xmlns:xlink="http://www.w3.org/1999/xlink"
	 x="0px" y="0px" width="5.063px" height="7.219px" viewBox="0 0 5.063 7.219" xml:space="preserve">
<rect x="1.695" y="4.244" width="1.417" height="1.416"/>
<g id="Building_x5F_Mosque_x5F_Top">
	<path d="M3.701,1.415H3.125c0,0.161-0.057,0.323-0.176,0.484c-0.112,0.162-0.295,0.24-0.541,0.24c-0.204,0-0.381-0.069-0.521-0.211
		C1.754,1.787,1.683,1.619,1.683,1.415H1.107C1.114,1.73,1.205,2.013,1.394,2.244s0.437,0.38,0.725,0.443v2.468h0.576V2.687
		c0.289-0.063,0.528-0.212,0.717-0.443C3.604,2.013,3.701,1.73,3.701,1.415"/>
</g>
</svg>
