<?xml version="1.0" encoding="utf-8"?>
<!-- Generator: Adobe Illustrator 16.0.0, SVG Export Plug-In . SVG Version: 6.00 Build 0)  -->
<!DOCTYPE svg PUBLIC "-//W3C//DTD SVG 1.1//EN" "http://www.w3.org/Graphics/SVG/1.1/DTD/svg11.dtd">
<svg version="1.1" id="Ebene_1" xmlns="http://www.w3.org/2000/svg" xmlns:xlink="http://www.w3.org/1999/xlink" x="0px" y="0px"
	 width="4px" height="5px" viewBox="0 0 4 5" enable-background="new 0 0 4 5" xml:space="preserve">
<symbol  id="Building_x5F_Mosque_x5F_Top" viewBox="-1.297 -1.87 2.594 3.74">
	<path d="M1.297,1.87H0.721c0-0.161-0.057-0.323-0.176-0.484C0.433,1.224,0.25,1.146,0.004,1.146c-0.204,0-0.381,0.069-0.521,0.211
		C-0.65,1.498-0.721,1.666-0.721,1.87h-0.576C-1.29,1.554-1.199,1.272-1.01,1.041c0.191-0.231,0.437-0.38,0.725-0.443V-1.87h0.576
		v2.468C0.58,0.661,0.819,0.81,1.009,1.041C1.199,1.272,1.297,1.554,1.297,1.87"/>
</symbol>
<use xlink:href="#Building_x5F_Mosque_x5F_Top"  width="2.594" height="3.74" x="-1.297" y="-1.87" transform="matrix(0.8338 0 0 -0.8338 2 2.5)" overflow="visible"/>
</svg>
