<?xml version="1.0" encoding="utf-8"?>
<!-- Generator: Adobe Illustrator 16.0.0, SVG Export Plug-In . SVG Version: 6.00 Build 0)  -->
<svg version="1.2" baseProfile="tiny" id="Ebene_1" xmlns="http://www.w3.org/2000/svg" xmlns:xlink="http://www.w3.org/1999/xlink"
	 x="0px" y="0px" width="17.422px" height="17.313px" viewBox="0 0 17.422 17.313" xml:space="preserve">
<rect x="0.729" y="0.704" fill="#FFFFFF" width="2.703" height="2.719"/>
<g>
	<g id="XMLID_3_">
		<path d="M17.217,6.364V0.153h-6.24v2.332H6.445V0.153h-6.24v6.211h2.367v4.59H0.205v6.207h6.24v-2.352h4.532v2.352h6.239v-6.208
			h-2.392v-4.59L17.217,6.364L17.217,6.364z M13.346,10.952h-2.369v2.353H6.445v-2.353H4.056v-4.59h2.389V3.988h4.532v2.375h2.364
			v4.59H13.346z"/>
	</g>
</g>
<g id="Castle">
	<g id="Deleted_Symbol">
		<path d="M-0.087,819.843v-1.552h-1.56v0.583h-1.132v-0.583h-1.56v1.552h0.591v1.147h-0.591v1.551h1.56v-0.588h1.132v0.588h1.56
			v-1.551h-0.598v-1.147H-0.087z M-1.055,820.99h-0.592v0.587h-1.132v-0.587h-0.597v-1.147h0.597v-0.593h1.132v0.593h0.591
			L-1.055,820.99L-1.055,820.99z"/>
	</g>
</g>
</svg>
