<?xml version="1.0" encoding="utf-8"?>
<!-- Generator: Adobe Illustrator 16.0.0, SVG Export Plug-In . SVG Version: 6.00 Build 0)  -->
<svg version="1.2" baseProfile="tiny" id="Layer_1" xmlns="http://www.w3.org/2000/svg" xmlns:xlink="http://www.w3.org/1999/xlink"
	 x="0px" y="0px" width="5.125px" height="5.094px" viewBox="0 0 5.125 5.094" xml:space="preserve">
<g id="Building_x5F_Hospital_x5F_1L015P009">
	<path d="M5.034,2.558c0,1.37-1.11,2.481-2.48,2.481c-1.369,0-2.48-1.111-2.48-2.481c0-1.37,1.111-2.48,2.48-2.48
		C3.924,0.078,5.034,1.188,5.034,2.558z"/>
	<g>
		<path fill="#FFFFFF" d="M4.29,2.205H2.908V0.823C2.794,0.799,2.675,0.787,2.554,0.787S2.314,0.8,2.2,0.823v1.382H0.818
			C0.794,2.318,0.782,2.437,0.782,2.558s0.013,0.24,0.036,0.354H2.2v1.381C2.314,4.316,2.433,4.33,2.554,4.33
			s0.24-0.014,0.354-0.037V2.912H4.29c0.022-0.113,0.035-0.232,0.035-0.354S4.313,2.318,4.29,2.205z"/>
	</g>
</g>
</svg>
