<?xml version="1.0" encoding="utf-8"?>
<!-- Generator: Adobe Illustrator 16.0.0, SVG Export Plug-In . SVG Version: 6.00 Build 0)  -->
<svg version="1.2" baseProfile="tiny" id="Ebene_1" xmlns="http://www.w3.org/2000/svg" xmlns:xlink="http://www.w3.org/1999/xlink"
	 x="0px" y="0px" width="4.357px" height="8.525px" viewBox="-0.357 -0.525 4.357 8.525" xml:space="preserve">
<ellipse fill="#FFFFFF" cx="1.786" cy="5.119" rx="1.604" ry="1.578"/>
<g id="Building_x5F_HOW_x5F_Minaret_x5F_1L015P080">
	<path fill="#FFFFFF" d="M3.405,5.131c0,0.907-0.71,1.643-1.588,1.643c-0.877,0-1.587-0.734-1.587-1.643s0.71-1.644,1.587-1.644
		C2.696,3.488,3.405,4.224,3.405,5.131z"/>
	<path d="M1.802,3.351c-0.986,0-1.786,0.8-1.786,1.786s0.8,1.786,1.786,1.786c0.985,0,1.786-0.8,1.786-1.786
		S2.787,3.351,1.802,3.351z M1.802,6.502c-0.754,0-1.365-0.611-1.365-1.365c0-0.755,0.611-1.365,1.365-1.365s1.363,0.61,1.363,1.365
		C3.165,5.891,2.556,6.502,1.802,6.502z"/>
	<path d="M2.227,5.137c0,0.234-0.189,0.424-0.425,0.424S1.377,5.371,1.377,5.137s0.19-0.426,0.425-0.426S2.227,4.902,2.227,5.137z"
		/>
</g>
<g id="Building_x5F_Mosque_x5F_Top">
	<path d="M3.099,0.018H2.522c0,0.161-0.057,0.323-0.176,0.484C2.235,0.664,2.052,0.741,1.806,0.741
		c-0.204,0-0.381-0.069-0.521-0.211C1.152,0.39,1.081,0.222,1.081,0.018H0.505c0.007,0.316,0.098,0.598,0.287,0.829
		c0.191,0.231,0.437,0.38,0.725,0.443v2.468h0.576V1.29C2.382,1.227,2.62,1.078,2.811,0.847S3.099,0.334,3.099,0.018"/>
</g>
</svg>
