<?xml version="1.0" encoding="utf-8"?>
<!-- Generator: Adobe Illustrator 16.0.0, SVG Export Plug-In . SVG Version: 6.00 Build 0)  -->
<svg version="1.2" baseProfile="tiny" id="Ebene_1" xmlns="http://www.w3.org/2000/svg" xmlns:xlink="http://www.w3.org/1999/xlink"
	 x="0px" y="0px" width="17.375px" height="14.172px" viewBox="0 0 17.375 14.172" xml:space="preserve">
<ellipse fill="#FFFFFF" cx="2.905" cy="1.27" rx="1.004" ry="0.973"/>
<ellipse fill="#FFFFFF" cx="2.835" cy="3.899" rx="0.5" ry="0.508"/>
<path fill="#FFFFFF" d="M4.855,2.813C4.85,2.595,4.723,2.38,4.467,2.338C4.414,2.305,4.352,2.282,4.279,2.272
	c-0.07-0.044-0.152-0.076-0.258-0.076H4.007c-0.06,0-0.109,0.016-0.157,0.032C3.897,1.95,3.746,1.633,3.382,1.633
	c-0.055,0-0.099,0.016-0.144,0.029C3.162,1.597,3.06,1.555,2.929,1.555c-0.093,0-0.168,0.024-0.234,0.06
	c-0.063-0.033-0.131-0.06-0.219-0.06c-0.296,0-0.45,0.212-0.474,0.44c-0.025,0.074-0.04,0.152-0.034,0.231
	c-0.041-0.015-0.081-0.03-0.133-0.03c-0.063,0-0.115,0.017-0.166,0.034c-0.033-0.006-0.062-0.018-0.1-0.018
	c-0.151,0-0.263,0.058-0.343,0.142c-0.22,0.04-0.345,0.204-0.375,0.393c-0.038,0.082-0.062,0.17-0.057,0.262
	C0.76,3.124,0.753,3.249,0.795,3.362C0.812,3.598,0.967,3.82,1.272,3.82c0.055,0,0.089-0.024,0.132-0.039
	C1.462,3.805,1.526,3.82,1.6,3.82c0.049,0,0.084-0.018,0.125-0.027C1.743,3.798,1.764,3.8,1.783,3.805
	c0.002,0,0.003,0.002,0.005,0.002l0,0c0.025,0.006,0.048,0.016,0.078,0.016c0.03,0,0.05-0.012,0.073-0.021
	c0.042,0,0.085-0.002,0.126-0.004c0.017,0.004,0.031,0.01,0.051,0.01c0.021,0,0.033-0.012,0.053-0.014
	c0.014-0.001,0.027,0,0.041-0.001c0.055-0.007,0.098-0.028,0.143-0.048c0.004-0.002,0.01-0.002,0.013-0.004
	C2.444,3.704,2.511,3.657,2.56,3.595c0.148,0.118,0.35,0.161,0.521,0.101C3.156,3.75,3.247,3.79,3.366,3.79
	c0.006,0,0.011-0.003,0.017-0.003c0.052,0.018,0.106,0.035,0.171,0.035c0.038,0,0.065-0.016,0.099-0.021
	c0.035,0.008,0.064,0.021,0.104,0.021c0.027,0,0.047-0.01,0.07-0.014C3.851,3.81,3.87,3.822,3.897,3.822
	c0.024,0,0.042-0.008,0.063-0.014C3.979,3.811,3.993,3.82,4.014,3.82c0.031,0.015,0.061,0.033,0.104,0.033
	c0.055,0,0.099-0.017,0.145-0.029c0.04,0.01,0.073,0.029,0.121,0.029c0.336,0,0.493-0.271,0.479-0.531
	C4.939,3.166,4.939,2.968,4.855,2.813z"/>
<path d="M10.792,11.5c-0.165-0.742-0.737-1.396-1.479-1.606c-0.25-2.295,2.174-3.844,4.156-2.723
	c0.956,0.579,1.459,1.521,1.389,2.645l-0.053,0.349l-0.097,0.345l-0.181,0.396l-0.211,0.336l-0.147,0.177L14.095,11.5H10.792
	 M3.247,11.5C0.01,7.063,7.966,4.423,8.038,9.893c-0.752,0.192-1.326,0.863-1.501,1.606H3.247z M-0.005,12.437v-0.87H1.86
	C0.415,8.948,2.272,5.771,5.25,5.74c-2.94-7.603,9.74-7.706,6.836,0c2.994,0.03,4.856,3.196,3.401,5.827h1.894v0.87h-2.552h-4.015
	c-0.526,2.313-3.721,2.315-4.258,0H-0.005z M9.989,11.934l-0.304-0.836l-0.771-0.449l-0.881,0.152l-0.574,0.684v0.896l0.574,0.682
	l0.881,0.155l0.771-0.448L9.989,11.934z M11.449,3.768l-0.319-1.29l-0.881-1l-1.246-0.47L7.681,1.17L6.584,1.924L5.968,3.105
	C5.255,7.188,11.163,7.903,11.449,3.768z"/>
</svg>
