<?xml version="1.0" encoding="utf-8"?>
<!-- Generator: Adobe Illustrator 16.0.2, SVG Export Plug-In . SVG Version: 6.00 Build 0)  -->
<svg version="1.2" baseProfile="tiny" id="Layer_2" xmlns="http://www.w3.org/2000/svg" xmlns:xlink="http://www.w3.org/1999/xlink"
	 x="0px" y="0px" width="5px" height="19.5px" viewBox="0 0 5 19.5" xml:space="preserve">
<g id="flarepipe1" display="none">
	<polygon display="inline" points="2.956,9.699 2.956,9.71 2.956,9.719 2.955,9.729 2.955,9.738 2.954,9.751 2.953,9.759 
		2.952,9.768 2.951,9.778 2.949,9.787 2.947,9.799 2.945,9.808 2.943,9.816 2.941,9.827 2.939,9.836 2.937,9.846 2.934,9.855 
		2.931,9.865 2.928,9.876 2.925,9.885 2.921,9.894 2.918,9.902 2.915,9.912 2.911,9.922 2.907,9.931 2.903,9.938 2.898,9.947 
		2.895,9.957 2.89,9.967 2.885,9.975 2.88,9.983 2.875,9.991 2.87,9.999 2.865,10.008 2.859,10.017 2.854,10.024 2.847,10.032 
		2.841,10.04 2.835,10.048 2.83,10.057 2.823,10.064 2.817,10.072 2.811,10.078 2.804,10.086 2.796,10.093 2.79,10.1 2.783,10.107 
		2.775,10.114 2.768,10.121 2.761,10.127 2.753,10.134 2.746,10.139 2.738,10.146 2.73,10.152 2.723,10.158 2.714,10.163 
		2.706,10.17 2.698,10.175 2.689,10.18 2.681,10.186 2.672,10.191 2.664,10.195 2.655,10.2 2.646,10.204 2.637,10.209 2.628,10.213 
		2.619,10.217 2.611,10.221 2.602,10.225 2.592,10.229 2.583,10.232 2.574,10.236 2.564,10.238 2.555,10.241 2.545,10.244 
		2.535,10.246 2.526,10.249 2.516,10.252 2.507,10.254 2.497,10.256 2.487,10.258 2.478,10.26 2.468,10.261 2.458,10.262 
		2.448,10.264 2.438,10.264 2.428,10.265 2.418,10.265 2.408,10.266 2.398,10.266 2.389,10.266 2.379,10.266 2.369,10.266 
		2.359,10.265 2.35,10.265 2.34,10.264 2.33,10.264 2.32,10.262 2.31,10.261 2.3,10.26 2.29,10.258 2.281,10.256 2.271,10.254 
		2.261,10.252 2.252,10.249 2.242,10.246 2.232,10.244 2.223,10.241 2.213,10.238 2.204,10.236 2.195,10.232 2.186,10.229 
		2.176,10.225 2.167,10.221 2.158,10.217 2.149,10.213 2.14,10.209 2.131,10.204 2.123,10.2 2.114,10.195 2.105,10.191 
		2.097,10.186 2.088,10.18 2.08,10.175 2.072,10.17 2.063,10.163 2.055,10.158 2.047,10.152 2.04,10.146 2.032,10.139 2.024,10.134 
		2.017,10.127 2.009,10.121 2.002,10.114 1.995,10.107 1.988,10.1 1.98,10.093 1.974,10.086 1.967,10.078 1.961,10.072 
		1.954,10.064 1.948,10.057 1.942,10.048 1.936,10.04 1.93,10.032 1.924,10.024 1.918,10.017 1.913,10.008 1.908,9.999 1.903,9.991 
		1.898,9.983 1.893,9.975 1.888,9.967 1.883,9.957 1.879,9.947 1.875,9.938 1.871,9.931 1.867,9.922 1.863,9.912 1.86,9.902 
		1.856,9.894 1.853,9.885 1.85,9.876 1.847,9.865 1.844,9.855 1.841,9.846 1.838,9.836 1.836,9.827 1.834,9.816 1.832,9.808 
		1.831,9.799 1.829,9.787 1.827,9.778 1.826,9.768 1.825,9.759 1.824,9.751 1.823,9.738 1.823,9.729 1.822,9.719 1.822,9.71 
		1.822,9.699 1.822,9.689 1.822,9.68 1.823,9.67 1.823,9.66 1.824,9.65 1.825,9.64 1.826,9.631 1.827,9.62 1.829,9.611 1.831,9.602 
		1.832,9.591 1.834,9.582 1.836,9.572 1.838,9.562 1.841,9.553 1.844,9.543 1.847,9.534 1.85,9.525 1.853,9.516 1.856,9.505 
		1.86,9.496 1.863,9.488 1.867,9.479 1.871,9.469 1.875,9.46 1.879,9.451 1.883,9.441 1.888,9.434 1.893,9.424 1.898,9.416 
		1.903,9.407 1.908,9.399 1.913,9.391 1.918,9.382 1.924,9.374 1.93,9.366 1.936,9.358 1.942,9.35 1.948,9.342 1.954,9.334 
		1.961,9.328 1.967,9.32 1.974,9.313 1.98,9.305 1.988,9.299 1.995,9.291 2.002,9.285 2.009,9.277 2.017,9.271 2.024,9.266 
		2.032,9.26 2.04,9.252 2.047,9.247 2.055,9.24 2.063,9.235 2.072,9.23 2.08,9.224 2.088,9.219 2.097,9.215 2.105,9.209 
		2.114,9.203 2.123,9.199 2.131,9.194 2.14,9.19 2.149,9.186 2.158,9.182 2.167,9.178 2.176,9.175 2.186,9.17 2.195,9.166 
		2.204,9.164 2.213,9.16 2.223,9.157 2.232,9.154 2.242,9.152 2.252,9.149 2.261,9.146 2.271,9.146 2.281,9.143 2.29,9.142 
		2.3,9.141 2.31,9.138 2.32,9.137 2.33,9.137 2.34,9.135 2.35,9.134 2.359,9.134 2.369,9.134 2.379,9.133 2.389,9.133 2.398,9.133 
		2.408,9.134 2.418,9.134 2.428,9.134 2.438,9.135 2.448,9.137 2.458,9.137 2.468,9.138 2.478,9.141 2.487,9.142 2.497,9.143 
		2.507,9.146 2.516,9.146 2.526,9.149 2.535,9.152 2.545,9.154 2.555,9.157 2.564,9.16 2.574,9.164 2.583,9.166 2.592,9.17 
		2.602,9.175 2.611,9.178 2.619,9.182 2.628,9.186 2.637,9.19 2.646,9.194 2.655,9.199 2.664,9.203 2.672,9.209 2.681,9.215 
		2.689,9.219 2.698,9.224 2.706,9.23 2.714,9.235 2.723,9.24 2.73,9.247 2.738,9.252 2.746,9.26 2.753,9.266 2.761,9.271 
		2.768,9.277 2.775,9.285 2.783,9.291 2.79,9.299 2.796,9.305 2.804,9.313 2.811,9.32 2.817,9.328 2.823,9.334 2.83,9.342 
		2.835,9.35 2.841,9.358 2.847,9.366 2.854,9.374 2.859,9.382 2.865,9.391 2.87,9.399 2.875,9.407 2.88,9.416 2.885,9.424 
		2.89,9.434 2.895,9.441 2.898,9.451 2.903,9.46 2.907,9.469 2.911,9.479 2.915,9.488 2.918,9.496 2.921,9.505 2.925,9.516 
		2.928,9.525 2.931,9.534 2.934,9.543 2.937,9.553 2.939,9.562 2.941,9.572 2.943,9.582 2.945,9.591 2.947,9.602 2.949,9.611 
		2.951,9.62 2.952,9.631 2.953,9.64 2.954,9.65 2.955,9.66 2.955,9.67 2.956,9.68 2.956,9.689 	"/>
	<g display="inline">
		<g>
			<polygon points="-8188.375,-8188.878 -8188.203,-8189.251 -8188.203,-8189.251 -8188.208,-8189.114 -8188.19,-8189.004 
				-8188.181,-8188.895 -8188.19,-8188.758 -8188.268,-8188.566 -8188.283,-8188.507 -8188.283,-8188.427 -8188.25,-8188.274 
				-8188.212,-8188.117 -8188.181,-8188.023 -8188.165,-8187.933 -8188.165,-8187.821 -8188.19,-8187.706 -8188.299,-8187.436 
				-8188.349,-8187.333 -8188.452,-8187.203 -8188.542,-8187.109 -8188.679,-8187.018 -8188.824,-8186.963 -8188.959,-8186.937 
				-8189.029,-8186.933 -8189.029,-8186.933 -8189.041,-8187.134 -8189.041,-8187.134 -8188.985,-8187.138 -8188.89,-8187.153 
				-8188.787,-8187.193 -8188.688,-8187.26 -8188.619,-8187.33 -8188.538,-8187.436 -8188.5,-8187.511 -8188.396,-8187.761 
				-8188.38,-8187.841 -8188.38,-8187.918 -8188.393,-8187.979 -8188.423,-8188.069 -8188.461,-8188.234 -8188.5,-8188.406 
				-8188.5,-8188.531 -8188.473,-8188.627 			"/>
			<polygon points="-8189.029,-8186.933 -8189.212,-8186.943 -8189.327,-8186.966 -8189.587,-8187.083 -8189.689,-8187.163 
				-8189.76,-8187.244 -8189.804,-8187.324 -8189.819,-8187.395 -8189.835,-8187.48 -8189.835,-8187.604 -8189.78,-8187.781 
				-8189.63,-8188.014 -8189.474,-8188.214 -8189.321,-8188.366 -8189.187,-8188.526 -8189.1,-8188.633 -8188.997,-8188.724 
				-8188.728,-8188.918 -8188.461,-8189.101 -8188.203,-8189.251 -8188.203,-8189.251 -8188.375,-8188.878 -8188.375,-8188.878 
				-8188.564,-8188.779 -8188.598,-8188.758 -8188.856,-8188.571 -8188.937,-8188.494 -8189.014,-8188.406 -8189.16,-8188.234 
				-8189.306,-8188.091 -8189.452,-8187.902 -8189.582,-8187.701 -8189.619,-8187.576 -8189.619,-8187.501 -8189.607,-8187.436 
				-8189.598,-8187.391 -8189.576,-8187.354 -8189.533,-8187.306 -8189.468,-8187.253 -8189.256,-8187.159 -8189.175,-8187.138 
				-8189.041,-8187.134 -8189.041,-8187.134 			"/>
			<path d="M-8189.078-8182.996c0.247,0,0.43,0.1,0.551,0.246v-3.779l-0.26-0.243h-0.54l-0.261,0.243v3.741
				C-8189.467-8182.911-8189.301-8182.996-8189.078-8182.996z"/>
		</g>
		<g id="XMLID_2_">
			<polygon points="3.434,0.846 3.691,0.358 3.691,0.358 3.685,0.537 3.711,0.682 3.725,0.825 3.711,1.003 3.594,1.254 3.571,1.332 
				3.571,1.437 3.621,1.636 3.679,1.841 3.725,1.964 3.749,2.083 3.749,2.228 3.711,2.379 3.548,2.733 3.473,2.867 3.318,3.037 
				3.184,3.159 2.978,3.279 2.761,3.351 2.559,3.385 2.454,3.391 2.454,3.391 2.436,3.127 2.436,3.127 2.52,3.123 2.662,3.102 
				2.816,3.049 2.965,2.963 3.068,2.871 3.189,2.733 3.246,2.634 3.402,2.308 3.427,2.203 3.427,2.102 3.407,2.022 3.362,1.904 
				3.305,1.688 3.246,1.463 3.246,1.3 3.287,1.174 			"/>
			<polygon points="2.454,3.391 2.179,3.376 2.007,3.347 1.617,3.194 1.464,3.089 1.358,2.983 1.292,2.878 1.27,2.787 1.246,2.674 
				1.246,2.513 1.328,2.281 1.553,1.977 1.787,1.715 2.016,1.516 2.217,1.306 2.347,1.167 2.501,1.048 2.905,0.794 3.305,0.555 
				3.691,0.358 3.691,0.358 3.434,0.846 3.434,0.846 3.15,0.975 3.1,1.003 2.713,1.247 2.591,1.348 2.476,1.463 2.257,1.688 
				2.038,1.875 1.819,2.122 1.625,2.385 1.569,2.549 1.569,2.647 1.587,2.733 1.601,2.792 1.633,2.84 1.698,2.903 1.796,2.972 
				2.114,3.094 2.235,3.123 2.436,3.127 2.436,3.127 			"/>
			<path d="M2.38,8.539c0.371,0,0.645,0.131,0.826,0.322V3.918L2.816,3.6h-0.81L1.616,3.918v4.894
				C1.797,8.65,2.046,8.539,2.38,8.539z"/>
		</g>
		<polygon points="0.667,8.493 0.374,8.493 0.374,8.863 4.626,8.863 4.626,8.493 		"/>
	</g>
</g>
<g>
	<polygon points="2.956,9.7 2.956,9.711 2.956,9.72 2.955,9.73 2.955,9.739 2.954,9.752 2.953,9.76 2.952,9.769 2.951,9.779 
		2.949,9.788 2.947,9.8 2.945,9.809 2.943,9.817 2.941,9.828 2.939,9.837 2.937,9.847 2.934,9.856 2.931,9.866 2.928,9.877 
		2.925,9.886 2.921,9.895 2.918,9.903 2.915,9.913 2.911,9.923 2.907,9.932 2.903,9.939 2.898,9.948 2.895,9.958 2.89,9.968 
		2.885,9.976 2.88,9.984 2.875,9.992 2.87,10 2.865,10.009 2.859,10.018 2.854,10.025 2.847,10.033 2.841,10.041 2.835,10.049 
		2.83,10.058 2.823,10.065 2.817,10.073 2.811,10.079 2.804,10.087 2.796,10.094 2.79,10.101 2.783,10.108 2.775,10.115 
		2.768,10.122 2.761,10.128 2.753,10.135 2.746,10.14 2.738,10.147 2.73,10.153 2.723,10.159 2.714,10.164 2.706,10.171 
		2.698,10.176 2.689,10.181 2.681,10.187 2.672,10.192 2.664,10.196 2.655,10.201 2.646,10.205 2.637,10.21 2.628,10.214 
		2.619,10.218 2.611,10.222 2.602,10.226 2.592,10.229 2.583,10.233 2.574,10.237 2.564,10.239 2.555,10.242 2.545,10.245 
		2.535,10.247 2.526,10.25 2.516,10.253 2.507,10.255 2.497,10.257 2.487,10.259 2.478,10.261 2.468,10.262 2.458,10.263 
		2.448,10.265 2.438,10.265 2.428,10.266 2.418,10.266 2.408,10.267 2.398,10.267 2.389,10.267 2.379,10.267 2.369,10.267 
		2.359,10.266 2.35,10.266 2.34,10.265 2.33,10.265 2.32,10.263 2.31,10.262 2.3,10.261 2.29,10.259 2.281,10.257 2.271,10.255 
		2.261,10.253 2.252,10.25 2.242,10.247 2.232,10.245 2.223,10.242 2.213,10.239 2.204,10.237 2.195,10.233 2.186,10.229 
		2.176,10.226 2.167,10.222 2.158,10.218 2.149,10.214 2.14,10.21 2.131,10.205 2.123,10.201 2.114,10.196 2.105,10.192 
		2.097,10.187 2.088,10.181 2.08,10.176 2.072,10.171 2.063,10.164 2.055,10.159 2.047,10.153 2.04,10.147 2.032,10.14 
		2.024,10.135 2.017,10.128 2.009,10.122 2.002,10.115 1.995,10.108 1.988,10.101 1.98,10.094 1.974,10.087 1.967,10.079 
		1.961,10.073 1.954,10.065 1.948,10.058 1.942,10.049 1.936,10.041 1.93,10.033 1.924,10.025 1.918,10.018 1.913,10.009 1.908,10 
		1.903,9.992 1.898,9.984 1.893,9.976 1.888,9.968 1.883,9.958 1.879,9.948 1.875,9.939 1.871,9.932 1.867,9.923 1.863,9.913 
		1.86,9.903 1.856,9.895 1.853,9.886 1.85,9.877 1.847,9.866 1.844,9.856 1.841,9.847 1.838,9.837 1.836,9.828 1.834,9.817 
		1.832,9.809 1.831,9.8 1.829,9.788 1.827,9.779 1.826,9.769 1.825,9.76 1.824,9.752 1.823,9.739 1.823,9.73 1.822,9.72 
		1.822,9.711 1.822,9.7 1.822,9.69 1.822,9.681 1.823,9.671 1.823,9.661 1.824,9.651 1.825,9.641 1.826,9.632 1.827,9.621 
		1.829,9.612 1.831,9.603 1.832,9.592 1.834,9.583 1.836,9.573 1.838,9.563 1.841,9.554 1.844,9.544 1.847,9.535 1.85,9.526 
		1.853,9.517 1.856,9.506 1.86,9.497 1.863,9.489 1.867,9.479 1.871,9.47 1.875,9.461 1.879,9.452 1.883,9.442 1.888,9.435 
		1.893,9.425 1.898,9.417 1.903,9.408 1.908,9.4 1.913,9.392 1.918,9.383 1.924,9.375 1.93,9.367 1.936,9.359 1.942,9.351 
		1.948,9.343 1.954,9.335 1.961,9.329 1.967,9.321 1.974,9.314 1.98,9.306 1.988,9.3 1.995,9.292 2.002,9.286 2.009,9.278 
		2.017,9.272 2.024,9.267 2.032,9.261 2.04,9.253 2.047,9.248 2.055,9.241 2.063,9.236 2.072,9.231 2.08,9.225 2.088,9.22 
		2.097,9.216 2.105,9.21 2.114,9.204 2.123,9.2 2.131,9.195 2.14,9.191 2.149,9.187 2.158,9.183 2.167,9.179 2.176,9.176 
		2.186,9.171 2.195,9.167 2.204,9.165 2.213,9.161 2.223,9.158 2.232,9.155 2.242,9.153 2.252,9.15 2.261,9.147 2.271,9.146 
		2.281,9.144 2.29,9.143 2.3,9.142 2.31,9.139 2.32,9.138 2.33,9.138 2.34,9.136 2.35,9.135 2.359,9.135 2.369,9.135 2.379,9.134 
		2.389,9.134 2.398,9.134 2.408,9.135 2.418,9.135 2.428,9.135 2.438,9.136 2.448,9.138 2.458,9.138 2.468,9.139 2.478,9.142 
		2.487,9.143 2.497,9.144 2.507,9.146 2.516,9.147 2.526,9.15 2.535,9.153 2.545,9.155 2.555,9.158 2.564,9.161 2.574,9.165 
		2.583,9.167 2.592,9.171 2.602,9.176 2.611,9.179 2.619,9.183 2.628,9.187 2.637,9.191 2.646,9.195 2.655,9.2 2.664,9.204 
		2.672,9.21 2.681,9.216 2.689,9.22 2.698,9.225 2.706,9.231 2.714,9.236 2.723,9.241 2.73,9.248 2.738,9.253 2.746,9.261 
		2.753,9.267 2.761,9.272 2.768,9.278 2.775,9.286 2.783,9.292 2.79,9.3 2.796,9.306 2.804,9.314 2.811,9.321 2.817,9.329 
		2.823,9.335 2.83,9.343 2.835,9.351 2.841,9.359 2.847,9.367 2.854,9.375 2.859,9.383 2.865,9.392 2.87,9.4 2.875,9.408 
		2.88,9.417 2.885,9.425 2.89,9.435 2.895,9.442 2.898,9.452 2.903,9.461 2.907,9.47 2.911,9.479 2.915,9.489 2.918,9.497 
		2.921,9.506 2.925,9.517 2.928,9.526 2.931,9.535 2.934,9.544 2.937,9.554 2.939,9.563 2.941,9.573 2.943,9.583 2.945,9.592 
		2.947,9.603 2.949,9.612 2.951,9.621 2.952,9.632 2.953,9.641 2.954,9.651 2.955,9.661 2.955,9.671 2.956,9.681 2.956,9.69 	"/>
	<g>
		<g id="XMLID_7_">
			<polygon points="3.434,0.847 3.691,0.359 3.691,0.359 3.685,0.538 3.711,0.682 3.725,0.825 3.711,1.004 3.595,1.254 3.571,1.333 
				3.571,1.437 3.621,1.636 3.679,1.842 3.725,1.965 3.749,2.083 3.749,2.229 3.711,2.38 3.548,2.733 3.473,2.868 3.318,3.038 
				3.184,3.16 2.978,3.28 2.761,3.352 2.559,3.386 2.454,3.392 2.454,3.392 2.436,3.128 2.436,3.128 2.52,3.123 2.662,3.103 
				2.816,3.05 2.965,2.963 3.068,2.872 3.189,2.733 3.246,2.635 3.402,2.308 3.427,2.204 3.427,2.103 3.407,2.023 3.362,1.905 
				3.305,1.689 3.246,1.464 3.246,1.3 3.287,1.175 			"/>
			<polygon points="2.454,3.392 2.179,3.377 2.007,3.348 1.617,3.195 1.464,3.09 1.358,2.984 1.292,2.879 1.27,2.787 1.246,2.675 
				1.246,2.514 1.328,2.281 1.553,1.978 1.786,1.716 2.016,1.516 2.217,1.307 2.347,1.167 2.501,1.049 2.905,0.794 3.305,0.556 
				3.691,0.359 3.691,0.359 3.434,0.847 3.434,0.847 3.15,0.976 3.1,1.004 2.713,1.248 2.591,1.349 2.476,1.464 2.257,1.689 
				2.038,1.876 1.819,2.123 1.625,2.386 1.569,2.55 1.569,2.648 1.587,2.733 1.601,2.792 1.633,2.841 1.698,2.903 1.796,2.973 
				2.114,3.095 2.235,3.123 2.436,3.128 2.436,3.128 			"/>
			<path d="M2.38,8.54c0.371,0,0.645,0.131,0.826,0.322V3.919l-0.39-0.318h-0.81L1.616,3.919v4.894
				C1.797,8.651,2.046,8.54,2.38,8.54z"/>
		</g>
		<polygon points="0.667,8.494 0.374,8.494 0.374,8.864 4.627,8.864 4.627,8.494 		"/>
	</g>
</g>
</svg>
