<?xml version="1.0" encoding="utf-8"?>
<!-- Generator: Adobe Illustrator 16.0.0, SVG Export Plug-In . SVG Version: 6.00 Build 0)  -->
<svg version="1.2" baseProfile="tiny" id="Ebene_1" xmlns="http://www.w3.org/2000/svg" xmlns:xlink="http://www.w3.org/1999/xlink"
	 x="0px" y="0px" width="5px" height="5px" viewBox="0 0 5 5" xml:space="preserve">
<rect x="0.729" y="0.704" fill="#FFFFFF" width="2.703" height="2.719"/>
<g>
	<g id="XMLID_3_">
		<path d="M4.626,1.987V0.436h-1.56v0.583H1.934V0.436H0.375v1.552h0.591v1.147H0.375v1.551h1.559V4.098h1.133v0.588h1.56V3.135
			H4.027V1.987H4.626z M3.658,3.135H3.066v0.588H1.934V3.135H1.337V1.987h0.597V1.394h1.133v0.593h0.591L3.658,3.135L3.658,3.135z"
			/>
	</g>
</g>
<g id="Castle">
	<g id="Deleted_Symbol">
		<path d="M-0.087,819.843v-1.552h-1.56v0.583h-1.132v-0.583h-1.56v1.552h0.591v1.147h-0.591v1.551h1.56v-0.588h1.132v0.588h1.56
			v-1.551h-0.598v-1.147H-0.087z M-1.055,820.99h-0.592v0.587h-1.132v-0.587h-0.597v-1.147h0.597v-0.593h1.132v0.593h0.591
			L-1.055,820.99L-1.055,820.99z"/>
	</g>
</g>
</svg>
