<?xml version="1.0" encoding="utf-8"?>
<!DOCTYPE svg PUBLIC "-//W3C//DTD SVG 1.1 Tiny//EN" "http://www.w3.org/Graphics/SVG/1.1/DTD/svg11-tiny.dtd">
<svg version="1.1" baseProfile="tiny" id="Layer_1" xmlns="http://www.w3.org/2000/svg" xmlns:xlink="http://www.w3.org/1999/xlink"
	 x="0px" y="0px" width="7px" height="7px" viewBox="0 0 7 7" xml:space="preserve">
<rect y="3.118" width="5.669" height="2.835"/>
<g id="Building_x5F_Mosque_x5F_Top">
	<path d="M4.132,0H3.556c0,0.161-0.057,0.323-0.176,0.484C3.268,0.646,3.085,0.724,2.839,0.724c-0.204,0-0.381-0.069-0.521-0.211
		C2.185,0.372,2.114,0.204,2.114,0H1.538c0.007,0.316,0.098,0.598,0.287,0.829c0.191,0.231,0.437,0.38,0.725,0.443V3.74h0.576V1.272
		c0.289-0.063,0.528-0.212,0.718-0.443C4.034,0.598,4.132,0.316,4.132,0"/>
</g>
</svg>