<?xml version="1.0" encoding="utf-8"?>
<!DOCTYPE svg PUBLIC "-//W3C//DTD SVG 1.1 Tiny//EN" "http://www.w3.org/Graphics/SVG/1.1/DTD/svg11-tiny.dtd">
<svg version="1.1" baseProfile="tiny" id="Layer_1" xmlns="http://www.w3.org/2000/svg" xmlns:xlink="http://www.w3.org/1999/xlink"
	 x="0px" y="0px" width="4px" height="6px" viewBox="0 0 4 6" xml:space="preserve">
<rect x="0.588" y="2.829" width="1.417" height="1.417"/>
<g id="Building_x5F_Mosque_x5F_Top">
	<path d="M2.594,0H2.018c0,0.161-0.057,0.323-0.176,0.484C1.73,0.646,1.547,0.724,1.301,0.724c-0.204,0-0.381-0.069-0.521-0.211
		C0.647,0.372,0.576,0.204,0.576,0H0c0.007,0.316,0.098,0.598,0.287,0.829c0.191,0.231,0.437,0.38,0.725,0.443V3.74h0.576V1.272
		c0.289-0.063,0.528-0.212,0.718-0.443C2.496,0.598,2.594,0.316,2.594,0"/>
</g>
</svg>